<svg width="120" height="140" viewBox="0 0 120 140" xmlns="http://www.w3.org/2000/svg">
  <!-- Modern gradient defs -->
  <defs>
    <linearGradient id="balloon1" x1="0%" y1="0%" x2="100%" y2="100%">
      <stop offset="0%" style="stop-color:#FF6B9D;stop-opacity:1" />
      <stop offset="100%" style="stop-color:#E91E63;stop-opacity:1" />
    </linearGradient>
    <linearGradient id="balloon2" x1="0%" y1="0%" x2="100%" y2="100%">
      <stop offset="0%" style="stop-color:#4ECDC4;stop-opacity:1" />
      <stop offset="100%" style="stop-color:#26A69A;stop-opacity:1" />
    </linearGradient>
    <linearGradient id="balloon3" x1="0%" y1="0%" x2="100%" y2="100%">
      <stop offset="0%" style="stop-color:#FFE066;stop-opacity:1" />
      <stop offset="100%" style="stop-color:#FFC107;stop-opacity:1" />
    </linearGradient>
    <linearGradient id="balloon4" x1="0%" y1="0%" x2="100%" y2="100%">
      <stop offset="0%" style="stop-color:#9C27B0;stop-opacity:1" />
      <stop offset="100%" style="stop-color:#673AB7;stop-opacity:1" />
    </linearGradient>
    <linearGradient id="balloon5" x1="0%" y1="0%" x2="100%" y2="100%">
      <stop offset="0%" style="stop-color:#FF9800;stop-opacity:1" />
      <stop offset="100%" style="stop-color:#F57C00;stop-opacity:1" />
    </linearGradient>
  </defs>
  
  <!-- Background balloons (floating higher) -->
  <ellipse cx="20" cy="25" rx="10" ry="15" fill="url(#balloon1)" opacity="0.8"/>
  <ellipse cx="100" cy="20" rx="9" ry="14" fill="url(#balloon4)" opacity="0.7"/>
  
  <!-- Main balloons cluster -->
  <ellipse cx="35" cy="35" rx="14" ry="20" fill="url(#balloon2)"/>
  <ellipse cx="60" cy="30" rx="15" ry="22" fill="url(#balloon3)"/>
  <ellipse cx="85" cy="40" rx="13" ry="19" fill="url(#balloon5)"/>
  
  <!-- Balloon highlights -->
  <ellipse cx="30" cy="28" rx="4" ry="7" fill="#FFFFFF" opacity="0.6"/>
  <ellipse cx="55" cy="23" rx="5" ry="8" fill="#FFFFFF" opacity="0.6"/>
  <ellipse cx="80" cy="33" rx="4" ry="6" fill="#FFFFFF" opacity="0.6"/>
  
  <!-- Background balloon highlights -->
  <ellipse cx="17" cy="20" rx="2.5" ry="4" fill="#FFFFFF" opacity="0.5"/>
  <ellipse cx="97" cy="16" rx="2" ry="3" fill="#FFFFFF" opacity="0.5"/>
  
  <!-- Strings -->
  <path d="M35 55 Q35 65, 35 75" stroke="#666" stroke-width="1.5" fill="none"/>
  <path d="M60 52 Q60 62, 60 72" stroke="#666" stroke-width="1.5" fill="none"/>
  <path d="M85 59 Q85 69, 85 79" stroke="#666" stroke-width="1.5" fill="none"/>
  <path d="M20 40 Q20 48, 25 55" stroke="#999" stroke-width="1" fill="none" opacity="0.8"/>
  <path d="M100 34 Q95 42, 90 50" stroke="#999" stroke-width="1" fill="none" opacity="0.7"/>
  
  <!-- String gathering point -->
  <circle cx="60" cy="85" r="4" fill="#8B4513" stroke="#654321" stroke-width="1"/>
  <path d="M35 75 Q45 80, 56 85" stroke="#666" stroke-width="1.5" fill="none"/>
  <path d="M60 72 Q60 78, 60 81" stroke="#666" stroke-width="1.5" fill="none"/>
  <path d="M85 79 Q75 82, 64 85" stroke="#666" stroke-width="1.5" fill="none"/>
  
  <!-- Confetti particles -->
  <circle cx="25" cy="60" r="1.5" fill="#FF6B9D"/>
  <rect x="75" y="55" width="2" height="2" fill="#4ECDC4" transform="rotate(45 76 56)"/>
  <circle cx="45" cy="70" r="1" fill="#FFE066"/>
  <rect x="90" y="65" width="1.5" height="1.5" fill="#9C27B0" transform="rotate(30 90.75 65.75)"/>
  <circle cx="15" cy="75" r="1" fill="#FF9800"/>
</svg>