<?xml version="1.0" encoding="UTF-8" standalone="no"?>
<svg
   xmlns:dc="http://purl.org/dc/elements/1.1/"
   xmlns:cc="http://creativecommons.org/ns#"
   xmlns:rdf="http://www.w3.org/1999/02/22-rdf-syntax-ns#"
   xmlns:svg="http://www.w3.org/2000/svg"
   xmlns="http://www.w3.org/2000/svg"
   xmlns:sodipodi="http://sodipodi.sourceforge.net/DTD/sodipodi-0.dtd"
   xmlns:inkscape="http://www.inkscape.org/namespaces/inkscape"
   viewBox="33.824737945492664 32.5402 105.70230607966458 107.3404"
   id="a"
   style="max-height: 500px"
   width="105.70230607966458"
   height="107.3404"
   version="1.1"
   inkscape:version="0.48.2 r9819"
   sodipodi:docname="user_logo_vector.svg">
  <metadata
     id="metadata3092">
    <rdf:RDF>
      <cc:Work
         rdf:about="">
        <dc:format>image/svg+xml</dc:format>
        <dc:type
           rdf:resource="http://purl.org/dc/dcmitype/StillImage" />
      </cc:Work>
    </rdf:RDF>
  </metadata>
  <sodipodi:namedview
     pagecolor="#ffffff"
     bordercolor="#666666"
     borderopacity="1"
     objecttolerance="10"
     gridtolerance="10"
     guidetolerance="10"
     inkscape:pageopacity="0"
     inkscape:pageshadow="2"
     inkscape:window-width="3440"
     inkscape:window-height="1369"
     id="namedview3090"
     showgrid="false"
     inkscape:zoom="1.0993065"
     inkscape:cx="47.550991"
     inkscape:cy="201.61307"
     inkscape:window-x="-8"
     inkscape:window-y="-8"
     inkscape:window-maximized="1"
     inkscape:current-layer="a" />
  <defs
     id="defs2986">
    <style
       id="style2988">.b{fill:#fff;}.c{fill:#f5c035;}</style>
  </defs>
  <g
     id="g2990">
    <path
       d="M68.46,65.37c2.6-2.27,5.64-4.05,8.98-5.2-.1-.49-2.66-12.28-16.23-17.73-2.02,14.52,6.95,22.66,7.25,22.93Z"
       class="c"
       id="path2992" />
    <path
       d="M76.71,50.21c.25-2.92,.97-6.27,2.53-9.78-1.36-1.57-2.98-3.11-4.92-4.56l-1.84-1.38-.89,2.12c-.94,2.23-1.57,4.37-1.96,6.4,3.12,2.26,5.42,4.8,7.09,7.21Z"
       class="c"
       id="path2994" />
    <path
       d="M86.23,58.68c1.77,0,3.5,.18,5.18,.51,.27-.85,3.67-12.15-5.19-23.46-8.82,11.32-5.46,22.64-5.19,23.47,1.69-.33,3.42-.51,5.2-.51Z"
       class="c"
       id="path2996" />
    <path
       d="M60.64,76.98c1.14-3.34,2.92-6.38,5.19-8.99-.3-.34-8.41-9.31-22.93-7.25,5.5,13.55,17.29,16.14,17.74,16.23Z"
       class="c"
       id="path2998" />
    <path
       d="M50.5,57.04c3.82,.41,7.08,1.46,9.72,2.71-1.25-2.65-2.3-5.91-2.71-9.73-1.97-.68-4.13-1.22-6.55-1.52l-2.28-.28,.28,2.28c.3,2.41,.85,4.57,1.53,6.53Z"
       class="c"
       id="path3000" />
    <path
       d="M102.84,43c-.39-2.04-1.03-4.18-1.98-6.41l-.9-2.12-1.83,1.39c-1.93,1.46-3.55,3-4.9,4.57,1.57,3.52,2.29,6.87,2.53,9.79,1.67-2.4,3.97-4.95,7.08-7.21Z"
       class="c"
       id="path3002" />
    <path
       d="M95,60.16c3.34,1.14,6.38,2.92,8.99,5.19,.34-.3,9.31-8.41,7.25-22.93-13.55,5.5-16.14,17.28-16.23,17.74Z"
       class="c"
       id="path3004" />
    <path
       d="M121.76,76.24c2.84,.24,6.21,.94,9.78,2.52,1.57-1.36,3.12-2.98,4.58-4.92l1.38-1.84-2.12-.89c-2.11-.89-4.25-1.54-6.41-1.95-2.26,3.11-4.8,5.41-7.21,7.08Z"
       class="c"
       id="path3006" />
    <path
       d="M136.26,85.74c-11.32-8.82-22.63-5.46-23.47-5.19,.33,1.69,.51,3.42,.51,5.2s-.18,3.51-.51,5.18c.85,.27,12.15,3.67,23.46-5.19Z"
       class="c"
       id="path3008" />
    <path
       d="M123.48,50.49l.28-2.28-2.28,.28c-2.41,.3-4.57,.85-6.53,1.53-.4,3.83-1.46,7.09-2.7,9.73,2.65-1.24,5.9-2.3,9.72-2.71,.68-1.97,1.23-4.13,1.52-6.56Z"
       class="c"
       id="path3010" />
    <path
       d="M36.2,85.77c11.32,8.82,22.64,5.46,23.47,5.19-.33-1.69-.51-3.42-.51-5.2s.18-3.51,.51-5.18c-.85-.27-12.15-3.67-23.46,5.19Z"
       class="c"
       id="path3012" />
    <path
       d="M106.62,67.98c2.27,2.61,4.05,5.64,5.2,8.98,.49-.1,12.28-2.66,17.73-16.23-14.51-2.02-22.66,6.94-22.93,7.25Z"
       class="c"
       id="path3014" />
    <path
       d="M121.96,114.47c-3.82-.41-7.08-1.46-9.72-2.71,1.25,2.65,2.3,5.91,2.71,9.73,1.97,.68,4.13,1.22,6.55,1.52l2.28,.28-.28-2.28c-.3-2.41-.85-4.57-1.53-6.53Z"
       class="c"
       id="path3016" />
    <path
       d="M104,106.14c-2.61,2.27-5.64,4.05-8.98,5.2,.1,.49,2.66,12.28,16.23,17.73,2.02-14.51-6.94-22.66-7.25-22.93Z"
       class="c"
       id="path3018" />
    <path
       d="M95.75,121.3c-.25,2.92-.97,6.27-2.53,9.78,1.36,1.57,2.98,3.11,4.92,4.56l1.84,1.38,.89-2.12c.94-2.23,1.57-4.37,1.96-6.4-3.12-2.26-5.42-4.8-7.09-7.21Z"
       class="c"
       id="path3020" />
    <path
       d="M86.23,112.83c-1.77,0-3.51-.18-5.18-.51-.27,.85-3.67,12.15,5.19,23.46,8.82-11.32,5.46-22.63,5.19-23.47-1.69,.33-3.42,.51-5.2,.51Z"
       class="c"
       id="path3022" />
    <path
       d="M136.12,97.65c-1.46-1.93-3.02-3.53-4.6-4.89-3.57,1.58-6.93,2.28-9.76,2.52,2.4,1.67,4.94,3.97,7.21,7.08,2.16-.41,4.31-1.07,6.42-1.97l2.12-.9-1.39-1.83Z"
       class="c"
       id="path3024" />
    <path
       d="M111.82,94.53c-1.15,3.34-2.92,6.38-5.19,8.99,.3,.34,8.41,9.31,22.93,7.25-5.49-13.55-17.28-16.14-17.74-16.23Z"
       class="c"
       id="path3026" />
    <path
       d="M69.62,128.51c.39,2.04,1.03,4.18,1.98,6.41l.9,2.12,1.83-1.39c1.93-1.46,3.55-3,4.9-4.57-1.57-3.52-2.29-6.87-2.53-9.79-1.67,2.4-3.97,4.95-7.08,7.21Z"
       class="c"
       id="path3028" />
    <path
       d="M50.69,95.27c-2.84-.25-6.21-.94-9.78-2.52-1.57,1.36-3.12,2.98-4.58,4.92l-1.38,1.84,2.12,.89c2.11,.89,4.25,1.54,6.41,1.95,2.26-3.11,4.8-5.41,7.21-7.08Z"
       class="c"
       id="path3030" />
    <path
       d="M40.93,78.75c3.56-1.58,6.93-2.28,9.76-2.52-2.4-1.67-4.94-3.97-7.21-7.08-2.16,.41-4.31,1.07-6.42,1.97l-2.11,.9,1.39,1.83c1.46,1.93,3.02,3.53,4.6,4.89Z"
       class="c"
       id="path3032" />
    <path
       d="M65.84,103.53c-2.27-2.61-4.05-5.64-5.2-8.98-.49,.1-12.28,2.65-17.74,16.23,14.52,2.02,22.66-6.95,22.93-7.25Z"
       class="c"
       id="path3034" />
    <path
       d="M48.98,121.02l-.28,2.28,2.28-.28c2.41-.3,4.57-.85,6.53-1.53,.4-3.83,1.46-7.09,2.7-9.73-2.65,1.24-5.9,2.3-9.72,2.71-.68,1.97-1.23,4.13-1.52,6.56Z"
       class="c"
       id="path3036" />
    <path
       d="M77.46,111.35c-3.34-1.15-6.38-2.92-8.99-5.19-.34,.3-9.31,8.41-7.25,22.93,13.55-5.5,16.14-17.29,16.23-17.74Z"
       class="c"
       id="path3038" />
  </g>
  <g
     id="g3040">
    <rect
       height=".89"
       width="111.69"
       y="129.69"
       x="160.46"
       class="b"
       id="rect3042" />
    <g
       id="g3044">
      <path
         d="M172.31,143.78c3.04,0,6.41,.62,8.21,5.23h.28v-4.16c-1.8-1.32-5.06-2.16-8.49-2.16-6.49,0-11.86,4.44-11.86,11.44s5.37,11.44,11.86,11.44c4.58,0,8.04-1.52,9.64-3.34v-7.76h-8.43v1.43h5.51v6.58c-1.12,1.1-3.6,2-6.41,2-4.19,0-8.88-2.47-8.88-10.34,0-7.36,4.3-10.34,8.57-10.34Z"
         class="b"
         id="path3046" />
      <path
         d="M215.42,154.12c0-7-6.04-11.07-13.07-11.07h-5.93v22.12h5.79c7.17,0,13.21-4.05,13.21-11.04Zm-16.07-9.81h3.54c4.27,0,9.24,2.16,9.24,9.81s-4.97,9.78-9.24,9.78h-3.54v-19.59Z"
         class="b"
         id="path3048" />
      <path
         d="M236.35,152.43l-2.14-.73c-2.81-1.01-3.57-2.44-3.57-4.3,0-2.11,1.77-3.63,4.66-3.63,2.73,0,4.8,1.63,5.82,4.92h.28v-4.75c-1.6-.73-3.74-1.26-6.13-1.26-4.07,0-7.22,2.28-7.22,5.65,0,2.78,1.52,4.92,5.42,6.24l2.14,.73c3.51,1.21,4.86,2.61,4.86,4.89,0,2.39-1.85,4.27-5.51,4.27-3.37,0-5.51-1.77-6.72-5.56h-.28l.08,4.92c1.85,1.15,4.22,1.74,7.03,1.74,5.03,0,8.01-2.67,8.01-6.41s-3.29-5.54-6.74-6.72Z"
         class="b"
         id="path3050" />
      <path
         d="M253.49,144.76s3.02-.28,5.46-.37h2.12c.11,0,.2,.02,.29,.03v20.74h2.92v-20.74c.09,0,.17-.02,.27-.02h2.12c2.45,.08,5.48,.37,5.48,.37v-1.71h-18.66v1.71Z"
         class="b"
         id="path3052" />
    </g>
    <g
       id="g3054">
      <path
         d="M177.98,54.22c9.3,0,17.43,7.52,17.43,17.24,0,8.22-6.35,17.24-17.57,17.24-10.09,0-17.38-7.62-17.38-16.87,0-10.42,8.32-17.62,17.52-17.62m-.14,1.96c-6.54,0-12.71,4.02-12.71,14.86,0,7.57,4.95,15.89,12.99,15.89,8.64,0,12.62-6.35,12.62-14.95,0-7.52-4.72-15.79-12.9-15.79"
         class="b"
         id="path3056" />
      <path
         d="M197.46,86.69h.65c2.71,0,4.11-1.03,6.4-3.88l8.79-10.93-9.58-12.52c-2.01-2.62-3.55-3.13-5.42-3.13h-.84v-1.4c2.01,.05,4.49,.14,6.87,.14s4.77-.09,6.87-.14v1.4h-1.26c-1.07,0-1.64,.42-1.64,1.45,0,.56,.37,1.35,.7,1.77l7.33,9.67,6.59-8.27c.61-.79,1.92-2.57,1.92-3.32,0-.93-.42-1.31-1.59-1.31h-.84v-1.4c1.87,.05,3.69,.14,5.47,.14s3.64-.09,5.47-.14v1.4h-.79c-2.52,0-3.69,.56-6.26,3.69l-8.79,10.7,10.56,13.69c1.5,1.96,2.76,2.38,4.53,2.38h1.07v1.4c-2.52-.09-4.91-.14-7.34-.14-2.2,0-4.49,.09-6.21,.14v-1.4h1.03c1.5,0,1.96-.47,1.96-1.31,0-.65-.42-1.21-1.07-2.05l-7.57-9.81-6.12,7.8c-.75,.93-2.24,2.9-2.24,4.16,0,.89,.51,1.22,1.64,1.22h.89v1.4c-1.87-.05-3.69-.14-5.56-.14s-4.02,.09-5.61,.14v-1.4Z"
         class="b"
         id="path3058" />
      <path
         d="M236.38,86.69h.84c2.15,0,3.08-.79,3.08-3.83v-22.8c0-3.04-.93-3.83-3.08-3.83h-.84v-1.4c1.36,.05,6.68,.14,11.35,.14,5.51,0,7.71-.09,10.98-.14,.05,2.71,.19,5.42,.33,7.71h-1.31c-.37-3.6-.79-5.93-8.5-5.93h-4.81v13.22h4.06c5.7,0,5.89-.98,5.98-3.46h1.31c-.05,.79-.09,2.24-.09,4.3,0,1.82,.05,3.32,.09,5h-1.31c-.23-3.08-.28-4.07-5.56-4.07h-4.49v11.26c0,3.04,.93,3.83,3.08,3.83h.84v1.4c-1.96-.05-3.92-.14-5.98-.14s-4.35,.09-5.98,.14v-1.4Z"
         class="b"
         id="path3060" />
      <path
         d="M280.06,54.22c9.3,0,17.43,7.52,17.43,17.24,0,8.22-6.35,17.24-17.57,17.24-10.09,0-17.38-7.62-17.38-16.87,0-10.42,8.32-17.62,17.52-17.62m-.14,1.96c-6.54,0-12.71,4.02-12.71,14.86,0,7.57,4.95,15.89,12.99,15.89,8.64,0,12.62-6.35,12.62-14.95,0-7.52-4.72-15.79-12.9-15.79"
         class="b"
         id="path3062" />
      <path
         d="M302.11,86.69h.84c2.15,0,3.08-.79,3.08-3.83v-22.8c0-3.04-.94-3.83-3.08-3.83h-.84v-1.4c1.63,.05,3.88,.14,5.98,.14,3.13,0,5.37-.14,7.43-.14,8.27,0,9.77,6.5,9.77,8.64,0,6.12-4.3,7.99-6.63,8.74l6.26,10.37c2.57,4.21,3.32,4.49,7.1,4.72v.98c-.89,0-1.73,.05-2.62,.05-4.11,0-6.03-.51-8.5-4.58l-5.47-8.92c-1.07-1.73-1.68-1.82-5.28-1.92v8.83c0,4.44,.79,4.95,2.66,4.95h1.36v1.4c-2.06-.05-4.02-.14-6.08-.14s-4.35,.09-5.98,.14v-1.4Zm8.04-15.89c.79,.28,1.96,.33,3.18,.33,4.2,0,7.66-1.91,7.66-6.78,0-2.06-1.4-7.76-7.9-7.76-1.12,0-2.01,.09-2.94,.19v14.02Z"
         class="b"
         id="path3064" />
      <path
         d="M334.11,86.69h.84c2.15,0,3.08-.79,3.08-3.83v-22.8c0-3.04-.93-3.83-3.08-3.83h-.84v-1.4c1.64,.05,3.88,.14,5.98,.14,3.74,0,7.52-.14,11.26-.14,12.62,0,17.05,10.28,17.05,16.31,0,6.82-4.49,16.96-18.78,16.96-2.85,0-6.21-.14-9.53-.14-2.1,0-4.35,.09-5.98,.14v-1.4Zm8.04-4.63c0,3.65,1.49,4.25,6.82,4.25,8.18,0,14.95-3.55,14.95-13.97,0-6.82-4.25-15.93-15.84-15.93-1.96,0-3.92,.19-5.93,.37v25.28Z"
         class="b"
         id="path3066" />
    </g>
    <g
       id="g3068">
      <path
         d="M160.46,116.61h.41c1.05,0,1.5-.39,1.5-1.86v-11.1c0-1.48-.46-1.86-1.5-1.86h-.41v-.68c.8,.02,1.89,.07,2.91,.07s1.96-.05,2.96-.07v.68h-.66c-.91,0-1.3,.25-1.3,2.41v4.21h9.39v-4.21c0-2.16-.39-2.41-1.3-2.41h-.66v-.68c1,.02,1.96,.07,2.96,.07s2.11-.05,2.91-.07v.68h-.41c-1.05,0-1.5,.39-1.5,1.86v11.1c0,1.48,.45,1.86,1.5,1.86h.41v.68c-.8-.02-1.89-.07-2.91-.07s-1.96,.05-2.96,.07v-.68h.66c.91,0,1.3-.25,1.3-2.41v-4.84h-9.39v4.84c0,2.16,.39,2.41,1.3,2.41h.66v.68c-1-.02-1.96-.07-2.96-.07s-2.12,.05-2.91,.07v-.68Z"
         class="b"
         id="path3070" />
      <path
         d="M179.4,116.61h.41c1.05,0,1.5-.39,1.5-1.86v-11.1c0-1.48-.45-1.86-1.5-1.86h-.41v-.68c.8,.02,1.89,.07,2.91,.07s1.96-.05,2.91-.07v.68h-.41c-1.05,0-1.5,.39-1.5,1.86v11.1c0,1.48,.45,1.86,1.5,1.86h.41v.68c-.96-.02-1.91-.07-2.91-.07s-2.12,.05-2.91,.07v-.68Z"
         class="b"
         id="path3072" />
      <path
         d="M202.83,105.1h-.64c-.36-2.43-3.18-3.34-5.62-3.34-3.84,0-6.82,2.55-6.82,7.1,0,4.05,3.02,7.87,7.23,7.87,1.73,0,2.41-.27,3.89-.93v-3.8c0-.68-.16-1.21-1.32-1.21h-.32v-.68c.75,.02,1.7,.07,2.62,.07,.86,0,1.75-.05,2.61-.07v.68h-.5c-.55,0-1.09,.2-1.09,1.14v4.55c-1.8,.55-3.91,1.11-6.3,1.11-6.84,0-9.1-4.89-9.1-8.21,0-4.89,3.64-8.58,9.33-8.58,2.25,0,4.53,.71,6.03,1.21v3.09Z"
         class="b"
         id="path3074" />
      <path
         d="M205.89,116.61h.41c1.05,0,1.5-.39,1.5-1.86v-11.1c0-1.48-.45-1.86-1.5-1.86h-.41v-.68c.8,.02,1.89,.07,2.91,.07s1.96-.05,2.96-.07v.68h-.66c-.91,0-1.3,.25-1.3,2.41v4.21h9.39v-4.21c0-2.16-.39-2.41-1.3-2.41h-.66v-.68c1,.02,1.96,.07,2.96,.07s2.11-.05,2.91-.07v.68h-.41c-1.05,0-1.5,.39-1.5,1.86v11.1c0,1.48,.46,1.86,1.5,1.86h.41v.68c-.8-.02-1.89-.07-2.91-.07s-1.96,.05-2.96,.07v-.68h.66c.91,0,1.3-.25,1.3-2.41v-4.84h-9.39v4.84c0,2.16,.39,2.41,1.3,2.41h.66v.68c-1-.02-1.96-.07-2.96-.07s-2.12,.05-2.91,.07v-.68Z"
         class="b"
         id="path3076" />
      <path
         d="M241.01,105.24h-.77c-.02-.73-.21-3.57-3.64-3.57-1.89,0-3.09,1.21-3.09,2.68,0,1.32,.68,2.25,2.57,3.12l2.09,.95c1.64,.75,3.39,1.98,3.39,4.25,0,2.84-1.86,4.91-5.66,4.91-.36,0-2.34-.02-4.07-.57l-.09-3.73h.68c.18,2.09,1.93,3.52,3.87,3.52s3.64-1.18,3.64-3.09-1.57-2.78-2.84-3.39l-2.46-1.16c-1.73-.82-2.93-2.05-2.93-3.91,0-2.34,2-4.46,5.07-4.46,1.43,0,2.84,.34,4.25,.61v3.82Z"
         class="b"
         id="path3078" />
      <path
         d="M259.04,105.17h-.36c-.59-1.18-1.68-3.41-5.98-3.41-4.62,0-6.1,4.25-6.1,7.6,0,5.41,3.84,7.28,6.21,7.28,3.57,0,5.21-2.03,6.28-3.37h.16v1.73c-.8,.75-2.73,2.59-6.25,2.59-5.16,0-8.67-3.25-8.67-7.82s3.07-8.96,8.46-8.96c2.25,0,4.41,.7,5.21,.95,.43,.14,.86,.3,1.14,.32l-.09,3.09Z"
         class="b"
         id="path3080" />
      <path
         d="M261.06,116.61h.41c1.05,0,1.5-.39,1.5-1.86v-11.1c0-1.48-.45-1.86-1.5-1.86h-.41v-.68c.8,.02,1.89,.07,2.91,.07s1.96-.05,2.96-.07v.68h-.66c-.91,0-1.3,.25-1.3,2.41v4.21h9.39v-4.21c0-2.16-.39-2.41-1.3-2.41h-.66v-.68c1,.02,1.96,.07,2.96,.07s2.11-.05,2.91-.07v.68h-.41c-1.05,0-1.5,.39-1.5,1.86v11.1c0,1.48,.45,1.86,1.5,1.86h.41v.68c-.8-.02-1.89-.07-2.91-.07s-1.96,.05-2.96,.07v-.68h.66c.91,0,1.3-.25,1.3-2.41v-4.84h-9.39v4.84c0,2.16,.39,2.41,1.3,2.41h.66v.68c-1-.02-1.96-.07-2.96-.07s-2.12,.05-2.91,.07v-.68Z"
         class="b"
         id="path3082" />
      <path
         d="M289.06,100.8c4.53,0,8.48,3.66,8.48,8.39,0,4-3.09,8.39-8.55,8.39-4.91,0-8.46-3.71-8.46-8.21,0-5.07,4.05-8.57,8.53-8.57m-.07,.95c-3.18,0-6.19,1.96-6.19,7.23,0,3.68,2.41,7.73,6.32,7.73,4.21,0,6.14-3.09,6.14-7.28,0-3.66-2.3-7.69-6.28-7.69"
         class="b"
         id="path3084" />
      <path
         d="M308.84,100.8c4.53,0,8.48,3.66,8.48,8.39,0,4-3.09,8.39-8.55,8.39-4.91,0-8.46-3.71-8.46-8.21,0-5.07,4.05-8.57,8.53-8.57m-.07,.95c-3.18,0-6.19,1.96-6.19,7.23,0,3.68,2.41,7.73,6.32,7.73,4.21,0,6.14-3.09,6.14-7.28,0-3.66-2.3-7.69-6.28-7.69"
         class="b"
         id="path3086" />
      <path
         d="M319.76,116.61h.41c1.05,0,1.5-.39,1.5-1.86v-11.1c0-1.48-.45-1.86-1.5-1.86h-.41v-.68c.8,.02,1.89,.07,2.91,.07s1.95-.05,3.02-.07v.68h-.52c-1.05,0-1.5,.39-1.5,1.86v10.58c0,1.71,.36,2.3,3.16,2.3,3.73,0,4.16-.66,4.57-3.25h.7l-.14,4.03c-2-.02-4.57-.07-6.57-.07-2.66,0-4.84,.05-5.64,.07v-.68Z"
         class="b"
         id="path3088" />
    </g>
  </g>
  <g
     inkscape:groupmode="layer"
     id="layer1"
     inkscape:label="Layer">
    <g
       id="g3226"
       transform="matrix(0.12444801,0,0,0.12160531,66.764737,67.722173)">
      <path
         id="path3214"
         d="m 0,0 c 105.6,0 211.2,0 320,0 0,105.6 0,211.2 0,320 -105.6,0 -211.2,0 -320,0 C 0,214.4 0,108.8 0,0 z"
         inkscape:connector-curvature="0"
         style="fill:#fefefe" />
      <path
         id="path3216"
         transform="translate(281.58984,38.582031)"
         d="m 0,0 c 7.1083322,5.6409504 13.065579,12.074435 18.410156,19.417969 0.613594,0.83789 1.227188,1.675781 1.859375,2.539062 C 35.69486,44.548995 39.713462,73.070004 35.027832,99.667969 29.559111,127.3358 19.151798,153.56545 2.4101563,176.41797 c -0.6071485,0.87656 -1.2142969,1.75312 -1.8398438,2.65625 -7.9810221,11.35949 -17.1818445,21.71018 -27.1601565,31.34375 -0.812109,0.8134 -1.624218,1.6268 -2.460937,2.46484 -16.332483,16.30736 -34.913079,28.35189 -55.539063,38.53516 0.375117,0.75023 0.750235,1.50047 1.136719,2.27344 3.28776,6.57552 6.575521,13.15104 9.863281,19.72656 -9.57303,-1.00707 -18.988883,-2.28048 -28.441406,-4.13672 -5.83329,-1.12967 -11.69691,-2.08164 -17.55859,-3.05078 -1.62338,-0.26853 -1.62338,-0.26853 -3.27954,-0.54248 -2.57328,-0.42463 -5.14675,-0.84805 -7.72046,-1.27002 1.40192,-6.93172 3.38428,-13.48126 5.69531,-20.16016 0.35231,-1.03048 0.70461,-2.06096 1.0676,-3.12266 1.11619,-3.26146 2.23902,-6.52058 3.36209,-9.77968 0.76216,-2.22316 1.52388,-4.44646 2.28515,-6.66992 1.85823,-5.42427 3.72191,-10.84665 5.58985,-16.26758 0.99,0 1.98,0 3,0 1.67643,3.26592 3.33943,6.53849 5,9.8125 0.47695,0.92877 0.9539,1.85754 1.44531,2.81445 0.67676,1.33902 0.67676,1.33902 1.36719,2.70508 0.62841,1.23327 0.62841,1.23327 1.26953,2.49146 0.917966,2.17651 0.917966,2.17651 0.917966,5.17651 20.123057,-12.38577 39.531872,-27.71031 54.375,-46.25 2.269451,-2.8272 4.536761,-5.64604 6.882813,-8.41016 C -14.349397,148.38811 5.1521812,108.88914 2.1367188,70.980469 0.14054366,52.901902 -6.0076311,36.161167 -20.589844,24.417969 c -14.555071,-9.578396 -28.751947,-14.413869 -46.25,-14.3125 -0.99854,0.0042 -1.99708,0.0084 -3.025879,0.0127 -10.904812,0.165251 -21.299557,1.48232 -31.087407,6.62793 -0.81017,0.332578 -0.81017,0.332578 -1.63671,0.671875 -0.66,-0.33 -1.32,-0.66 -2,-1 C -75.432862,-10.214822 -35.017827,-26.168557 0,0 z"
         inkscape:connector-curvature="0"
         style="fill:#5fca26" />
      <path
         id="path3218"
         transform="translate(126,9)"
         d="m 0,0 c 0.66,0 1.32,0 2,0 3.2469037,6.5782408 6.4896034,13.158536 9.726974,19.741474 1.503421,3.056758 3.008274,6.112794 4.516434,9.167217 1.734362,3.512701 3.462434,7.028477 5.190186,10.544434 0.812525,1.642376 0.812525,1.642376 1.641464,3.317932 0.500443,1.020756 1.000887,2.041513 1.516495,3.093201 0.441901,0.897127 0.883803,1.794254 1.339096,2.718567 C 26.880719,50.730376 27.522858,52.7076 28,55 18.074259,59.69651 8.0144712,64.032841 -2.1062012,68.288574 c -2.6168098,1.101372 -5.2309192,2.208994 -7.8449707,3.316895 -1.6658571,0.702199 -3.3318671,1.404036 -4.9980471,2.105468 -0.780099,0.331159 -1.560198,0.662317 -2.363937,1.00351 C -22.770836,77 -22.770836,77 -25,77 c 0.602046,-6.181571 2.446822,-11.618338 4.5625,-17.4375 0.329355,-0.922324 0.658711,-1.844648 0.998047,-2.794922 C -18.632174,54.509535 -17.818913,52.253844 -17,50 -17.813398,49.886562 -18.626797,49.773125 -19.464844,49.65625 -23.605264,48.887642 -27.53975,47.729662 -31.5625,46.5 -44.021734,42.711354 -59.680501,39.602661 -71.925781,45.671875 -82.181486,52.238616 -86.513996,60.591259 -90,72 c -3.82346,18.798677 -0.578299,40.89624 5,59 0.303735,0.98629 0.607471,1.97259 0.92041,2.98877 C -67.097932,187.98932 -37.930522,252.91496 9,287 c 1.334907,0.9979 2.668985,1.99692 4,3 -18.3219324,-2.44843 -35.081655,-15.58153 -49,-27 -0.569604,-0.46664 -1.139209,-0.93328 -1.726074,-1.41406 -11.376479,-9.38991 -21.961739,-19.31729 -31.141113,-30.89844 -1.391652,-1.75358 -2.812652,-3.48438 -4.265625,-5.1875 C -83.63766,213.15022 -92.337532,199.26026 -100,185 c -0.31888,-0.5833 -0.63776,-1.1666 -0.96631,-1.76758 -18.70191,-34.44943 -30.50153,-79.4756 -19.99853,-118.427733 C -117.20742,53.037064 -112.18106,42.317318 -104,33 c 0.58266,-0.676758 1.16531,-1.353516 1.76562,-2.050781 10.21696,-11.054059 24.745724,-18.412249 39.82813,-19.117188 18.548865,-0.09274 34.237098,3.473409 50.585937,12.285156 C -10.037259,25.145456 -10.037259,25.145456 -8,25 -5.36,16.75 -2.72,8.5 0,0 z"
         inkscape:connector-curvature="0"
         style="fill:#5fca26" />
    </g>
  </g>
</svg>
