<?xml version="1.0" encoding="UTF-8"?><svg id="a" xmlns="http://www.w3.org/2000/svg" viewBox="0 0 403.36 211.3"><defs><style>.b{fill:#fff;}.c{fill:#f5c035;}</style></defs><g><path class="c" d="M68.46,65.37c2.6-2.27,5.64-4.05,8.98-5.2-.1-.49-2.66-12.28-16.23-17.73-2.02,14.52,6.95,22.66,7.25,22.93Z"/><path class="c" d="M76.71,50.21c.25-2.92,.97-6.27,2.53-9.78-1.36-1.57-2.98-3.11-4.92-4.56l-1.84-1.38-.89,2.12c-.94,2.23-1.57,4.37-1.96,6.4,3.12,2.26,5.42,4.8,7.09,7.21Z"/><path class="c" d="M86.23,58.68c1.77,0,3.5,.18,5.18,.51,.27-.85,3.67-12.15-5.19-23.46-8.82,11.32-5.46,22.64-5.19,23.47,1.69-.33,3.42-.51,5.2-.51Z"/><path class="c" d="M60.64,76.98c1.14-3.34,2.92-6.38,5.19-8.99-.3-.34-8.41-9.31-22.93-7.25,5.5,13.55,17.29,16.14,17.74,16.23Z"/><path class="c" d="M50.5,57.04c3.82,.41,7.08,1.46,9.72,2.71-1.25-2.65-2.3-5.91-2.71-9.73-1.97-.68-4.13-1.22-6.55-1.52l-2.28-.28,.28,2.28c.3,2.41,.85,4.57,1.53,6.53Z"/><path class="c" d="M102.84,43c-.39-2.04-1.03-4.18-1.98-6.41l-.9-2.12-1.83,1.39c-1.93,1.46-3.55,3-4.9,4.57,1.57,3.52,2.29,6.87,2.53,9.79,1.67-2.4,3.97-4.95,7.08-7.21Z"/><path class="c" d="M95,60.16c3.34,1.14,6.38,2.92,8.99,5.19,.34-.3,9.31-8.41,7.25-22.93-13.55,5.5-16.14,17.28-16.23,17.74Z"/><path class="c" d="M121.76,76.24c2.84,.24,6.21,.94,9.78,2.52,1.57-1.36,3.12-2.98,4.58-4.92l1.38-1.84-2.12-.89c-2.11-.89-4.25-1.54-6.41-1.95-2.26,3.11-4.8,5.41-7.21,7.08Z"/><path class="c" d="M136.26,85.74c-11.32-8.82-22.63-5.46-23.47-5.19,.33,1.69,.51,3.42,.51,5.2s-.18,3.51-.51,5.18c.85,.27,12.15,3.67,23.46-5.19Z"/><path class="c" d="M123.48,50.49l.28-2.28-2.28,.28c-2.41,.3-4.57,.85-6.53,1.53-.4,3.83-1.46,7.09-2.7,9.73,2.65-1.24,5.9-2.3,9.72-2.71,.68-1.97,1.23-4.13,1.52-6.56Z"/><path class="c" d="M36.2,85.77c11.32,8.82,22.64,5.46,23.47,5.19-.33-1.69-.51-3.42-.51-5.2s.18-3.51,.51-5.18c-.85-.27-12.15-3.67-23.46,5.19Z"/><path class="c" d="M106.62,67.98c2.27,2.61,4.05,5.64,5.2,8.98,.49-.1,12.28-2.66,17.73-16.23-14.51-2.02-22.66,6.94-22.93,7.25Z"/><path class="c" d="M121.96,114.47c-3.82-.41-7.08-1.46-9.72-2.71,1.25,2.65,2.3,5.91,2.71,9.73,1.97,.68,4.13,1.22,6.55,1.52l2.28,.28-.28-2.28c-.3-2.41-.85-4.57-1.53-6.53Z"/><path class="c" d="M104,106.14c-2.61,2.27-5.64,4.05-8.98,5.2,.1,.49,2.66,12.28,16.23,17.73,2.02-14.51-6.94-22.66-7.25-22.93Z"/><path class="c" d="M95.75,121.3c-.25,2.92-.97,6.27-2.53,9.78,1.36,1.57,2.98,3.11,4.92,4.56l1.84,1.38,.89-2.12c.94-2.23,1.57-4.37,1.96-6.4-3.12-2.26-5.42-4.8-7.09-7.21Z"/><path class="c" d="M86.23,112.83c-1.77,0-3.51-.18-5.18-.51-.27,.85-3.67,12.15,5.19,23.46,8.82-11.32,5.46-22.63,5.19-23.47-1.69,.33-3.42,.51-5.2,.51Z"/><path class="c" d="M136.12,97.65c-1.46-1.93-3.02-3.53-4.6-4.89-3.57,1.58-6.93,2.28-9.76,2.52,2.4,1.67,4.94,3.97,7.21,7.08,2.16-.41,4.31-1.07,6.42-1.97l2.12-.9-1.39-1.83Z"/><path class="c" d="M111.82,94.53c-1.15,3.34-2.92,6.38-5.19,8.99,.3,.34,8.41,9.31,22.93,7.25-5.49-13.55-17.28-16.14-17.74-16.23Z"/><path class="c" d="M69.62,128.51c.39,2.04,1.03,4.18,1.98,6.41l.9,2.12,1.83-1.39c1.93-1.46,3.55-3,4.9-4.57-1.57-3.52-2.29-6.87-2.53-9.79-1.67,2.4-3.97,4.95-7.08,7.21Z"/><path class="c" d="M50.69,95.27c-2.84-.25-6.21-.94-9.78-2.52-1.57,1.36-3.12,2.98-4.58,4.92l-1.38,1.84,2.12,.89c2.11,.89,4.25,1.54,6.41,1.95,2.26-3.11,4.8-5.41,7.21-7.08Z"/><path class="c" d="M40.93,78.75c3.56-1.58,6.93-2.28,9.76-2.52-2.4-1.67-4.94-3.97-7.21-7.08-2.16,.41-4.31,1.07-6.42,1.97l-2.11,.9,1.39,1.83c1.46,1.93,3.02,3.53,4.6,4.89Z"/><path class="c" d="M65.84,103.53c-2.27-2.61-4.05-5.64-5.2-8.98-.49,.1-12.28,2.65-17.74,16.23,14.52,2.02,22.66-6.95,22.93-7.25Z"/><path class="c" d="M48.98,121.02l-.28,2.28,2.28-.28c2.41-.3,4.57-.85,6.53-1.53,.4-3.83,1.46-7.09,2.7-9.73-2.65,1.24-5.9,2.3-9.72,2.71-.68,1.97-1.23,4.13-1.52,6.56Z"/><path class="c" d="M77.46,111.35c-3.34-1.15-6.38-2.92-8.99-5.19-.34,.3-9.31,8.41-7.25,22.93,13.55-5.5,16.14-17.29,16.23-17.74Z"/></g><g><rect class="b" x="160.46" y="129.69" width="111.69" height=".89"/><g><path class="b" d="M172.31,143.78c3.04,0,6.41,.62,8.21,5.23h.28v-4.16c-1.8-1.32-5.06-2.16-8.49-2.16-6.49,0-11.86,4.44-11.86,11.44s5.37,11.44,11.86,11.44c4.58,0,8.04-1.52,9.64-3.34v-7.76h-8.43v1.43h5.51v6.58c-1.12,1.1-3.6,2-6.41,2-4.19,0-8.88-2.47-8.88-10.34,0-7.36,4.3-10.34,8.57-10.34Z"/><path class="b" d="M215.42,154.12c0-7-6.04-11.07-13.07-11.07h-5.93v22.12h5.79c7.17,0,13.21-4.05,13.21-11.04Zm-16.07-9.81h3.54c4.27,0,9.24,2.16,9.24,9.81s-4.97,9.78-9.24,9.78h-3.54v-19.59Z"/><path class="b" d="M236.35,152.43l-2.14-.73c-2.81-1.01-3.57-2.44-3.57-4.3,0-2.11,1.77-3.63,4.66-3.63,2.73,0,4.8,1.63,5.82,4.92h.28v-4.75c-1.6-.73-3.74-1.26-6.13-1.26-4.07,0-7.22,2.28-7.22,5.65,0,2.78,1.52,4.92,5.42,6.24l2.14,.73c3.51,1.21,4.86,2.61,4.86,4.89,0,2.39-1.85,4.27-5.51,4.27-3.37,0-5.51-1.77-6.72-5.56h-.28l.08,4.92c1.85,1.15,4.22,1.74,7.03,1.74,5.03,0,8.01-2.67,8.01-6.41s-3.29-5.54-6.74-6.72Z"/><path class="b" d="M253.49,144.76s3.02-.28,5.46-.37h2.12c.11,0,.2,.02,.29,.03v20.74h2.92v-20.74c.09,0,.17-.02,.27-.02h2.12c2.45,.08,5.48,.37,5.48,.37v-1.71h-18.66v1.71Z"/></g><g><path class="b" d="M177.98,54.22c9.3,0,17.43,7.52,17.43,17.24,0,8.22-6.35,17.24-17.57,17.24-10.09,0-17.38-7.62-17.38-16.87,0-10.42,8.32-17.62,17.52-17.62m-.14,1.96c-6.54,0-12.71,4.02-12.71,14.86,0,7.57,4.95,15.89,12.99,15.89,8.64,0,12.62-6.35,12.62-14.95,0-7.52-4.72-15.79-12.9-15.79"/><path class="b" d="M197.46,86.69h.65c2.71,0,4.11-1.03,6.4-3.88l8.79-10.93-9.58-12.52c-2.01-2.62-3.55-3.13-5.42-3.13h-.84v-1.4c2.01,.05,4.49,.14,6.87,.14s4.77-.09,6.87-.14v1.4h-1.26c-1.07,0-1.64,.42-1.64,1.45,0,.56,.37,1.35,.7,1.77l7.33,9.67,6.59-8.27c.61-.79,1.92-2.57,1.92-3.32,0-.93-.42-1.31-1.59-1.31h-.84v-1.4c1.87,.05,3.69,.14,5.47,.14s3.64-.09,5.47-.14v1.4h-.79c-2.52,0-3.69,.56-6.26,3.69l-8.79,10.7,10.56,13.69c1.5,1.96,2.76,2.38,4.53,2.38h1.07v1.4c-2.52-.09-4.91-.14-7.34-.14-2.2,0-4.49,.09-6.21,.14v-1.4h1.03c1.5,0,1.96-.47,1.96-1.31,0-.65-.42-1.21-1.07-2.05l-7.57-9.81-6.12,7.8c-.75,.93-2.24,2.9-2.24,4.16,0,.89,.51,1.22,1.64,1.22h.89v1.4c-1.87-.05-3.69-.14-5.56-.14s-4.02,.09-5.61,.14v-1.4Z"/><path class="b" d="M236.38,86.69h.84c2.15,0,3.08-.79,3.08-3.83v-22.8c0-3.04-.93-3.83-3.08-3.83h-.84v-1.4c1.36,.05,6.68,.14,11.35,.14,5.51,0,7.71-.09,10.98-.14,.05,2.71,.19,5.42,.33,7.71h-1.31c-.37-3.6-.79-5.93-8.5-5.93h-4.81v13.22h4.06c5.7,0,5.89-.98,5.98-3.46h1.31c-.05,.79-.09,2.24-.09,4.3,0,1.82,.05,3.32,.09,5h-1.31c-.23-3.08-.28-4.07-5.56-4.07h-4.49v11.26c0,3.04,.93,3.83,3.08,3.83h.84v1.4c-1.96-.05-3.92-.14-5.98-.14s-4.35,.09-5.98,.14v-1.4Z"/><path class="b" d="M280.06,54.22c9.3,0,17.43,7.52,17.43,17.24,0,8.22-6.35,17.24-17.57,17.24-10.09,0-17.38-7.62-17.38-16.87,0-10.42,8.32-17.62,17.52-17.62m-.14,1.96c-6.54,0-12.71,4.02-12.71,14.86,0,7.57,4.95,15.89,12.99,15.89,8.64,0,12.62-6.35,12.62-14.95,0-7.52-4.72-15.79-12.9-15.79"/><path class="b" d="M302.11,86.69h.84c2.15,0,3.08-.79,3.08-3.83v-22.8c0-3.04-.94-3.83-3.08-3.83h-.84v-1.4c1.63,.05,3.88,.14,5.98,.14,3.13,0,5.37-.14,7.43-.14,8.27,0,9.77,6.5,9.77,8.64,0,6.12-4.3,7.99-6.63,8.74l6.26,10.37c2.57,4.21,3.32,4.49,7.1,4.72v.98c-.89,0-1.73,.05-2.62,.05-4.11,0-6.03-.51-8.5-4.58l-5.47-8.92c-1.07-1.73-1.68-1.82-5.28-1.92v8.83c0,4.44,.79,4.95,2.66,4.95h1.36v1.4c-2.06-.05-4.02-.14-6.08-.14s-4.35,.09-5.98,.14v-1.4Zm8.04-15.89c.79,.28,1.96,.33,3.18,.33,4.2,0,7.66-1.91,7.66-6.78,0-2.06-1.4-7.76-7.9-7.76-1.12,0-2.01,.09-2.94,.19v14.02Z"/><path class="b" d="M334.11,86.69h.84c2.15,0,3.08-.79,3.08-3.83v-22.8c0-3.04-.93-3.83-3.08-3.83h-.84v-1.4c1.64,.05,3.88,.14,5.98,.14,3.74,0,7.52-.14,11.26-.14,12.62,0,17.05,10.28,17.05,16.31,0,6.82-4.49,16.96-18.78,16.96-2.85,0-6.21-.14-9.53-.14-2.1,0-4.35,.09-5.98,.14v-1.4Zm8.04-4.63c0,3.65,1.49,4.25,6.82,4.25,8.18,0,14.95-3.55,14.95-13.97,0-6.82-4.25-15.93-15.84-15.93-1.96,0-3.92,.19-5.93,.37v25.28Z"/></g><g><path class="b" d="M160.46,116.61h.41c1.05,0,1.5-.39,1.5-1.86v-11.1c0-1.48-.46-1.86-1.5-1.86h-.41v-.68c.8,.02,1.89,.07,2.91,.07s1.96-.05,2.96-.07v.68h-.66c-.91,0-1.3,.25-1.3,2.41v4.21h9.39v-4.21c0-2.16-.39-2.41-1.3-2.41h-.66v-.68c1,.02,1.96,.07,2.96,.07s2.11-.05,2.91-.07v.68h-.41c-1.05,0-1.5,.39-1.5,1.86v11.1c0,1.48,.45,1.86,1.5,1.86h.41v.68c-.8-.02-1.89-.07-2.91-.07s-1.96,.05-2.96,.07v-.68h.66c.91,0,1.3-.25,1.3-2.41v-4.84h-9.39v4.84c0,2.16,.39,2.41,1.3,2.41h.66v.68c-1-.02-1.96-.07-2.96-.07s-2.12,.05-2.91,.07v-.68Z"/><path class="b" d="M179.4,116.61h.41c1.05,0,1.5-.39,1.5-1.86v-11.1c0-1.48-.45-1.86-1.5-1.86h-.41v-.68c.8,.02,1.89,.07,2.91,.07s1.96-.05,2.91-.07v.68h-.41c-1.05,0-1.5,.39-1.5,1.86v11.1c0,1.48,.45,1.86,1.5,1.86h.41v.68c-.96-.02-1.91-.07-2.91-.07s-2.12,.05-2.91,.07v-.68Z"/><path class="b" d="M202.83,105.1h-.64c-.36-2.43-3.18-3.34-5.62-3.34-3.84,0-6.82,2.55-6.82,7.1,0,4.05,3.02,7.87,7.23,7.87,1.73,0,2.41-.27,3.89-.93v-3.8c0-.68-.16-1.21-1.32-1.21h-.32v-.68c.75,.02,1.7,.07,2.62,.07,.86,0,1.75-.05,2.61-.07v.68h-.5c-.55,0-1.09,.2-1.09,1.14v4.55c-1.8,.55-3.91,1.11-6.3,1.11-6.84,0-9.1-4.89-9.1-8.21,0-4.89,3.64-8.58,9.33-8.58,2.25,0,4.53,.71,6.03,1.21v3.09Z"/><path class="b" d="M205.89,116.61h.41c1.05,0,1.5-.39,1.5-1.86v-11.1c0-1.48-.45-1.86-1.5-1.86h-.41v-.68c.8,.02,1.89,.07,2.91,.07s1.96-.05,2.96-.07v.68h-.66c-.91,0-1.3,.25-1.3,2.41v4.21h9.39v-4.21c0-2.16-.39-2.41-1.3-2.41h-.66v-.68c1,.02,1.96,.07,2.96,.07s2.11-.05,2.91-.07v.68h-.41c-1.05,0-1.5,.39-1.5,1.86v11.1c0,1.48,.46,1.86,1.5,1.86h.41v.68c-.8-.02-1.89-.07-2.91-.07s-1.96,.05-2.96,.07v-.68h.66c.91,0,1.3-.25,1.3-2.41v-4.84h-9.39v4.84c0,2.16,.39,2.41,1.3,2.41h.66v.68c-1-.02-1.96-.07-2.96-.07s-2.12,.05-2.91,.07v-.68Z"/><path class="b" d="M241.01,105.24h-.77c-.02-.73-.21-3.57-3.64-3.57-1.89,0-3.09,1.21-3.09,2.68,0,1.32,.68,2.25,2.57,3.12l2.09,.95c1.64,.75,3.39,1.98,3.39,4.25,0,2.84-1.86,4.91-5.66,4.91-.36,0-2.34-.02-4.07-.57l-.09-3.73h.68c.18,2.09,1.93,3.52,3.87,3.52s3.64-1.18,3.64-3.09-1.57-2.78-2.84-3.39l-2.46-1.16c-1.73-.82-2.93-2.05-2.93-3.91,0-2.34,2-4.46,5.07-4.46,1.43,0,2.84,.34,4.25,.61v3.82Z"/><path class="b" d="M259.04,105.17h-.36c-.59-1.18-1.68-3.41-5.98-3.41-4.62,0-6.1,4.25-6.1,7.6,0,5.41,3.84,7.28,6.21,7.28,3.57,0,5.21-2.03,6.28-3.37h.16v1.73c-.8,.75-2.73,2.59-6.25,2.59-5.16,0-8.67-3.25-8.67-7.82s3.07-8.96,8.46-8.96c2.25,0,4.41,.7,5.21,.95,.43,.14,.86,.3,1.14,.32l-.09,3.09Z"/><path class="b" d="M261.06,116.61h.41c1.05,0,1.5-.39,1.5-1.86v-11.1c0-1.48-.45-1.86-1.5-1.86h-.41v-.68c.8,.02,1.89,.07,2.91,.07s1.96-.05,2.96-.07v.68h-.66c-.91,0-1.3,.25-1.3,2.41v4.21h9.39v-4.21c0-2.16-.39-2.41-1.3-2.41h-.66v-.68c1,.02,1.96,.07,2.96,.07s2.11-.05,2.91-.07v.68h-.41c-1.05,0-1.5,.39-1.5,1.86v11.1c0,1.48,.45,1.86,1.5,1.86h.41v.68c-.8-.02-1.89-.07-2.91-.07s-1.96,.05-2.96,.07v-.68h.66c.91,0,1.3-.25,1.3-2.41v-4.84h-9.39v4.84c0,2.16,.39,2.41,1.3,2.41h.66v.68c-1-.02-1.96-.07-2.96-.07s-2.12,.05-2.91,.07v-.68Z"/><path class="b" d="M289.06,100.8c4.53,0,8.48,3.66,8.48,8.39,0,4-3.09,8.39-8.55,8.39-4.91,0-8.46-3.71-8.46-8.21,0-5.07,4.05-8.57,8.53-8.57m-.07,.95c-3.18,0-6.19,1.96-6.19,7.23,0,3.68,2.41,7.73,6.32,7.73,4.21,0,6.14-3.09,6.14-7.28,0-3.66-2.3-7.69-6.28-7.69"/><path class="b" d="M308.84,100.8c4.53,0,8.48,3.66,8.48,8.39,0,4-3.09,8.39-8.55,8.39-4.91,0-8.46-3.71-8.46-8.21,0-5.07,4.05-8.57,8.53-8.57m-.07,.95c-3.18,0-6.19,1.96-6.19,7.23,0,3.68,2.41,7.73,6.32,7.73,4.21,0,6.14-3.09,6.14-7.28,0-3.66-2.3-7.69-6.28-7.69"/><path class="b" d="M319.76,116.61h.41c1.05,0,1.5-.39,1.5-1.86v-11.1c0-1.48-.45-1.86-1.5-1.86h-.41v-.68c.8,.02,1.89,.07,2.91,.07s1.95-.05,3.02-.07v.68h-.52c-1.05,0-1.5,.39-1.5,1.86v10.58c0,1.71,.36,2.3,3.16,2.3,3.73,0,4.16-.66,4.57-3.25h.7l-.14,4.03c-2-.02-4.57-.07-6.57-.07-2.66,0-4.84,.05-5.64,.07v-.68Z"/></g></g></svg>